<svg width="718" height="718" xmlns="http://www.w3.org/2000/svg" xmlns:xlink="http://www.w3.org/1999/xlink" overflow="hidden"><defs><clipPath id="clip0"><rect x="0" y="0" width="718" height="718"/></clipPath></defs><g clip-path="url(#clip0)"><rect x="0" y="0" width="718" height="718" fill="#FFFFFF" fill-opacity="0"/><path d="M359 141.507C293.772 65.4899 184.774 41.9974 103.047 111.606 21.3196 181.215 9.81354 297.596 73.9945 379.923 127.357 448.371 288.849 592.736 341.778 639.463 347.697 644.69 350.659 647.303 354.113 648.329 357.126 649.225 360.425 649.225 363.441 648.329 366.895 647.303 369.853 644.69 375.776 639.463 428.705 592.736 590.195 448.371 643.559 379.923 707.74 297.596 697.637 180.483 614.505 111.606 531.372 42.7296 424.228 65.4899 359 141.507Z" stroke="#D70000" stroke-width="66.7434" stroke-linecap="round" stroke-linejoin="round" fill="none" fill-rule="evenodd"/></g></svg>